<mxfile host="Electron" modified="2024-01-14T05:19:50.243Z" agent="Mozilla/5.0 (Windows NT 10.0; Win64; x64) AppleWebKit/537.36 (KHTML, like Gecko) draw.io/22.1.18 Chrome/120.0.6099.199 Electron/28.1.2 Safari/537.36" etag="2xN75KIRDQ2As6dCKwb9" version="22.1.18" type="device">
  <diagram name="Page-1" id="bBGwkZQmWt4cSljStsyh">
    <mxGraphModel dx="863" dy="500" grid="1" gridSize="10" guides="1" tooltips="1" connect="1" arrows="1" fold="1" page="1" pageScale="1" pageWidth="850" pageHeight="1100" math="0" shadow="0">
      <root>
        <mxCell id="0" />
        <mxCell id="1" parent="0" />
        <mxCell id="EQvNfwffd4W0tMNZh4VS-3" style="edgeStyle=orthogonalEdgeStyle;rounded=0;orthogonalLoop=1;jettySize=auto;html=1;exitX=0.5;exitY=1;exitDx=0;exitDy=0;" parent="1" source="EQvNfwffd4W0tMNZh4VS-1" edge="1">
          <mxGeometry relative="1" as="geometry">
            <mxPoint x="400" y="130" as="targetPoint" />
          </mxGeometry>
        </mxCell>
        <mxCell id="EQvNfwffd4W0tMNZh4VS-1" value="Generate a random word" style="rounded=1;whiteSpace=wrap;html=1;" parent="1" vertex="1">
          <mxGeometry x="310" y="30" width="180" height="60" as="geometry" />
        </mxCell>
        <mxCell id="EQvNfwffd4W0tMNZh4VS-5" style="edgeStyle=orthogonalEdgeStyle;rounded=0;orthogonalLoop=1;jettySize=auto;html=1;exitX=0.5;exitY=1;exitDx=0;exitDy=0;" parent="1" source="EQvNfwffd4W0tMNZh4VS-4" edge="1">
          <mxGeometry relative="1" as="geometry">
            <mxPoint x="400" y="230" as="targetPoint" />
          </mxGeometry>
        </mxCell>
        <mxCell id="EQvNfwffd4W0tMNZh4VS-4" value="Generate as many blanks as the letters in the word" style="rounded=1;whiteSpace=wrap;html=1;" parent="1" vertex="1">
          <mxGeometry x="325" y="130" width="150" height="60" as="geometry" />
        </mxCell>
        <mxCell id="EQvNfwffd4W0tMNZh4VS-7" style="edgeStyle=orthogonalEdgeStyle;rounded=0;orthogonalLoop=1;jettySize=auto;html=1;exitX=0.5;exitY=1;exitDx=0;exitDy=0;" parent="1" source="EQvNfwffd4W0tMNZh4VS-6" edge="1">
          <mxGeometry relative="1" as="geometry">
            <mxPoint x="400" y="330" as="targetPoint" />
          </mxGeometry>
        </mxCell>
        <mxCell id="EQvNfwffd4W0tMNZh4VS-6" value="Ask the user to guess a letter" style="rounded=1;whiteSpace=wrap;html=1;" parent="1" vertex="1">
          <mxGeometry x="310" y="230" width="180" height="60" as="geometry" />
        </mxCell>
        <mxCell id="EQvNfwffd4W0tMNZh4VS-8" value="Is the guessed letter in the word?" style="rhombus;whiteSpace=wrap;html=1;rotation=0;" parent="1" vertex="1">
          <mxGeometry x="320" y="330" width="160" height="130" as="geometry" />
        </mxCell>
        <mxCell id="EQvNfwffd4W0tMNZh4VS-14" value="" style="shape=partialRectangle;whiteSpace=wrap;html=1;top=0;left=0;fillColor=none;rotation=-90;" parent="1" vertex="1">
          <mxGeometry x="463.5" y="409.5" width="90" height="57" as="geometry" />
        </mxCell>
        <mxCell id="EQvNfwffd4W0tMNZh4VS-15" value="" style="shape=partialRectangle;whiteSpace=wrap;html=1;top=0;left=0;fillColor=none;rotation=-180;" parent="1" vertex="1">
          <mxGeometry x="264" y="398" width="54" height="84" as="geometry" />
        </mxCell>
        <mxCell id="EQvNfwffd4W0tMNZh4VS-18" style="edgeStyle=orthogonalEdgeStyle;rounded=0;orthogonalLoop=1;jettySize=auto;html=1;exitX=0.5;exitY=1;exitDx=0;exitDy=0;" parent="1" edge="1">
          <mxGeometry relative="1" as="geometry">
            <mxPoint x="263" y="580" as="targetPoint" />
            <mxPoint x="263" y="530" as="sourcePoint" />
          </mxGeometry>
        </mxCell>
        <mxCell id="EQvNfwffd4W0tMNZh4VS-16" value="Replace the blank with the letter" style="rounded=1;whiteSpace=wrap;html=1;" parent="1" vertex="1">
          <mxGeometry x="190" y="482" width="138" height="48" as="geometry" />
        </mxCell>
        <mxCell id="EQvNfwffd4W0tMNZh4VS-17" value="Lose a life" style="rounded=1;whiteSpace=wrap;html=1;" parent="1" vertex="1">
          <mxGeometry x="470" y="482" width="148" height="48" as="geometry" />
        </mxCell>
        <mxCell id="EQvNfwffd4W0tMNZh4VS-19" style="edgeStyle=orthogonalEdgeStyle;rounded=0;orthogonalLoop=1;jettySize=auto;html=1;exitX=0.5;exitY=1;exitDx=0;exitDy=0;" parent="1" edge="1">
          <mxGeometry relative="1" as="geometry">
            <mxPoint x="536" y="582" as="targetPoint" />
            <mxPoint x="536" y="532" as="sourcePoint" />
          </mxGeometry>
        </mxCell>
        <mxCell id="EQvNfwffd4W0tMNZh4VS-22" style="edgeStyle=orthogonalEdgeStyle;rounded=0;orthogonalLoop=1;jettySize=auto;html=1;exitX=0;exitY=0.5;exitDx=0;exitDy=0;entryX=0;entryY=0.5;entryDx=0;entryDy=0;" parent="1" source="EQvNfwffd4W0tMNZh4VS-20" target="EQvNfwffd4W0tMNZh4VS-6" edge="1">
          <mxGeometry relative="1" as="geometry">
            <mxPoint x="90" y="260" as="targetPoint" />
            <Array as="points">
              <mxPoint x="120" y="635" />
              <mxPoint x="120" y="260" />
            </Array>
          </mxGeometry>
        </mxCell>
        <mxCell id="EQvNfwffd4W0tMNZh4VS-20" value="Are all the blanks filled?" style="rhombus;whiteSpace=wrap;html=1;rotation=0;" parent="1" vertex="1">
          <mxGeometry x="193" y="580" width="140" height="110" as="geometry" />
        </mxCell>
        <mxCell id="EQvNfwffd4W0tMNZh4VS-21" value="Have they run out of lives?" style="rhombus;whiteSpace=wrap;html=1;rotation=0;" parent="1" vertex="1">
          <mxGeometry x="463.5" y="580" width="140" height="110" as="geometry" />
        </mxCell>
        <mxCell id="EQvNfwffd4W0tMNZh4VS-23" style="edgeStyle=orthogonalEdgeStyle;rounded=0;orthogonalLoop=1;jettySize=auto;html=1;entryX=1;entryY=0.5;entryDx=0;entryDy=0;" parent="1" target="EQvNfwffd4W0tMNZh4VS-6" edge="1">
          <mxGeometry relative="1" as="geometry">
            <mxPoint x="580" y="260" as="targetPoint" />
            <mxPoint x="602.7727272727273" y="635" as="sourcePoint" />
            <Array as="points">
              <mxPoint x="670" y="635" />
              <mxPoint x="670" y="260" />
            </Array>
          </mxGeometry>
        </mxCell>
        <mxCell id="EQvNfwffd4W0tMNZh4VS-25" value="" style="endArrow=none;html=1;rounded=0;exitX=0.5;exitY=1;exitDx=0;exitDy=0;entryX=0.5;entryY=1;entryDx=0;entryDy=0;" parent="1" source="EQvNfwffd4W0tMNZh4VS-20" target="EQvNfwffd4W0tMNZh4VS-21" edge="1">
          <mxGeometry width="50" height="50" relative="1" as="geometry">
            <mxPoint x="260" y="740" as="sourcePoint" />
            <mxPoint x="540" y="740" as="targetPoint" />
            <Array as="points">
              <mxPoint x="263" y="750" />
              <mxPoint x="400" y="750" />
              <mxPoint x="536" y="750" />
            </Array>
          </mxGeometry>
        </mxCell>
        <mxCell id="EQvNfwffd4W0tMNZh4VS-26" value="No" style="text;html=1;align=center;verticalAlign=middle;resizable=0;points=[];autosize=1;strokeColor=none;fillColor=none;" parent="1" vertex="1">
          <mxGeometry x="125" y="640" width="40" height="30" as="geometry" />
        </mxCell>
        <mxCell id="EQvNfwffd4W0tMNZh4VS-27" value="No" style="text;html=1;align=center;verticalAlign=middle;resizable=0;points=[];autosize=1;strokeColor=none;fillColor=none;" parent="1" vertex="1">
          <mxGeometry x="630" y="640" width="40" height="30" as="geometry" />
        </mxCell>
        <mxCell id="EQvNfwffd4W0tMNZh4VS-28" value="Yes" style="text;html=1;align=center;verticalAlign=middle;resizable=0;points=[];autosize=1;strokeColor=none;fillColor=none;" parent="1" vertex="1">
          <mxGeometry x="271" y="700" width="40" height="30" as="geometry" />
        </mxCell>
        <mxCell id="EQvNfwffd4W0tMNZh4VS-29" value="Yes" style="text;html=1;align=center;verticalAlign=middle;resizable=0;points=[];autosize=1;strokeColor=none;fillColor=none;" parent="1" vertex="1">
          <mxGeometry x="488.5" y="700" width="40" height="30" as="geometry" />
        </mxCell>
        <mxCell id="EQvNfwffd4W0tMNZh4VS-30" value="Yes" style="text;html=1;align=center;verticalAlign=middle;resizable=0;points=[];autosize=1;strokeColor=none;fillColor=none;" parent="1" vertex="1">
          <mxGeometry x="210" y="450" width="40" height="30" as="geometry" />
        </mxCell>
        <mxCell id="EQvNfwffd4W0tMNZh4VS-31" value="No" style="text;html=1;align=center;verticalAlign=middle;resizable=0;points=[];autosize=1;strokeColor=none;fillColor=none;" parent="1" vertex="1">
          <mxGeometry x="540" y="450" width="40" height="30" as="geometry" />
        </mxCell>
        <mxCell id="EQvNfwffd4W0tMNZh4VS-33" value="Game Over" style="rounded=1;whiteSpace=wrap;html=1;" parent="1" vertex="1">
          <mxGeometry x="340" y="810" width="120" height="60" as="geometry" />
        </mxCell>
        <mxCell id="EQvNfwffd4W0tMNZh4VS-34" value="" style="endArrow=classic;html=1;rounded=0;entryX=0.5;entryY=0;entryDx=0;entryDy=0;entryPerimeter=0;" parent="1" target="EQvNfwffd4W0tMNZh4VS-33" edge="1">
          <mxGeometry width="50" height="50" relative="1" as="geometry">
            <mxPoint x="400" y="750" as="sourcePoint" />
            <mxPoint x="410" y="800" as="targetPoint" />
          </mxGeometry>
        </mxCell>
      </root>
    </mxGraphModel>
  </diagram>
</mxfile>
